<svg width="280" height="280" viewBox="0 0 280 280" fill="none" xmlns="http://www.w3.org/2000/svg">
  <!-- Red circle background with white stroke -->
  <circle cx="140" cy="140" r="132" fill="#ff0000" stroke="#ffffff" stroke-width="8"/>
  <!-- Lightning bolt icon (white) centered -->
  <g transform="translate(140,140) scale(0.7) translate(-139,-140)">
    <g clip-path="url(#clip0_615_542)">
      <mask id="mask0_615_542" style="mask-type:luminance" maskUnits="userSpaceOnUse" x="0" y="0" width="278" height="280">
        <path d="M278 0H0V280H278V0Z" fill="white"/>
      </mask>
      <g mask="url(#mask0_615_542)">
        <mask id="mask1_615_542" style="mask-type:alpha" maskUnits="userSpaceOnUse" x="-41" y="-40" width="360" height="360">
          <path d="M152.21 -40C206.66 -34.3 256.37 -6.7 287.72 39.67C305.23 65.57 314.48 94.76 318.21 125V155C312.73 206.11 288.45 252.6 246.13 284.01C220.12 303.32 189.89 315.94 157.31 319.03C155.18 319.23 153.18 319.39 152.21 320H126.21C84.6401 316.19 47.2202 299.7 16.9702 271.97C-59.2498 202.1 -60.5398 81.94 14.4702 10.55C42.9002 -16.51 79.2602 -34.4 119.1 -38.99C121.65 -39.28 123.59 -39.36 125.21 -40H152.21ZM126.03 282.53C161.86 285.95 196.54 275.7 224.41 254.2L157.95 188.03L176.63 161.37L247.82 231.78C264.88 211.72 274.9 188.89 279.21 164.05C289.88 102.64 259.68 42.26 204.9 13.31C153.39 -13.91 90.2801 -6.9 46.4301 31.28L94.9202 79.68L83.9102 113.52L24.0201 54.81C-6.8399 96.23 -12.3598 151.12 7.9701 198.09C29.4602 245.22 73.8301 277.53 126.02 282.51L126.03 282.53Z" fill="black"/>
          <path d="M193.69 115.84L154.09 172.86L99.3901 251.06L131.68 145.59L86.4102 145.43L121.64 34.13L186.06 34.02L166.6 72.27L144.9 115.43L193.69 115.84Z" fill="black"/>
        </mask>
        <g mask="url(#mask1_615_542)">
          <path d="M139 278C146 49.5 278 215.768 278 139C278 62.2324 215.768 0 139 0C62.2325 0 128 56 78.5 123.5C78.5 200.268 62.2325 278 139 278Z" fill="white"/>
        </g>
      </g>
    </g>
  </g>
  <defs>
    <clipPath id="clip0_615_542">
      <rect width="278" height="280" fill="white"/>
    </clipPath>
  </defs>
</svg>
